<?xml version="1.0" standalone="no"?><svg xmlns="http://www.w3.org/2000/svg" viewBox="0 0 1440 320"><path fill="#0099ff" fill-opacity="1" d="M0,64L30,96C60,128,120,192,180,213.3C240,235,300,213,360,186.7C420,160,480,128,540,144C600,160,660,224,720,229.3C780,235,840,181,900,138.7C960,96,1020,64,1080,53.3C1140,43,1200,53,1260,69.3C1320,85,1380,107,1410,117.3L1440,128L1440,320L1410,320C1380,320,1320,320,1260,320C1200,320,1140,320,1080,320C1020,320,960,320,900,320C840,320,780,320,720,320C660,320,600,320,540,320C480,320,420,320,360,320C300,320,240,320,180,320C120,320,60,320,30,320L0,320Z"></path></svg>